#tb 0: 1/44100
#media_type 0: audio
#codec_id 0: pcm_s16le
#sample_rate 0: 44100
#channel_layout_name 0: stereo
#tb 1: 1/44100
#media_type 1: audio
#codec_id 1: pcm_s16le
#sample_rate 1: 44100
#channel_layout_name 1: stereo
#tb 2: 1/44100
#media_type 2: audio
#codec_id 2: pcm_s16le
#sample_rate 2: 44100
#channel_layout_name 2: stereo
0,          0,          0,     1024,     4096, 0x29e3eecf
0,       1024,       1024,     1024,     4096, 0x18390b96
0,       2048,       2048,     1024,     4096, 0xc477fa99
0,       3072,       3072,     1024,     4096, 0x3bc0f14f
0,       4096,       4096,     1024,     4096, 0x2379ed91
0,       5120,       5120,     1024,     4096, 0xfd6a0070
0,       6144,       6144,     1024,     4096, 0x0b01f4cf
0,       7168,       7168,     1024,     4096, 0x6716fd93
0,       8192,       8192,     1024,     4096, 0x1840f25b
0,       9216,       9216,      784,     3136, 0x048e2dc2
1,      10000,      10000,     1264,     5056, 0x7265bced
1,      11264,      11264,     1024,     4096, 0x3e050390
1,      12288,      12288,     1024,     4096, 0xb30e0090
1,      13312,      13312,     1024,     4096, 0x26b8f75b
1,      14336,      14336,     1024,     4096, 0xd706e311
1,      15360,      15360,     1024,     4096, 0x0c480138
1,      16384,      16384,     1024,     4096, 0x6c9a0216
1,      17408,      17408,     1024,     4096, 0x7abce54f
1,      18432,      18432,     1024,     4096, 0xda45f63f
1,      19456,      19456,      544,     2176, 0x3b54483e
2,      20000,      20000,     1504,     6016, 0xba58ba9b
2,      21504,      21504,     1024,     4096, 0xa61af077
2,      22528,      22528,     1024,     4096, 0x84c4fc07
2,      23552,      23552,     1024,     4096, 0x4a35f345
2,      24576,      24576,     1024,     4096, 0xbb65fa81
2,      25600,      25600,     1024,     4096, 0xf6c7f5e5
2,      26624,      26624,     1024,     4096, 0xd3270138
2,      27648,      27648,     1024,     4096, 0x4782ed53
2,      28672,      28672,     1024,     4096, 0xe308f055
2,      29696,      29696,     1024,     4096, 0x7d33f97d
2,      30720,      30720,     1024,     4096, 0xb8b00dd4
2,      31744,      31744,     1024,     4096, 0x7ff7efab
2,      32768,      32768,     1024,     4096, 0x29e3eecf
2,      33792,      33792,     1024,     4096, 0x18390b96
2,      34816,      34816,     1024,     4096, 0xc477fa99
2,      35840,      35840,     1024,     4096, 0x3bc0f14f
2,      36864,      36864,     1024,     4096, 0x2379ed91
2,      37888,      37888,     1024,     4096, 0xfd6a0070
2,      38912,      38912,     1024,     4096, 0x0b01f4cf
2,      39936,      39936,     1024,     4096, 0x6716fd93
2,      40960,      40960,     1024,     4096, 0x1840f25b
2,      41984,      41984,     1024,     4096, 0x9c1ffaf1
2,      43008,      43008,     1024,     4096, 0xcbedefaf
2,      44032,      44032,     1024,     4096, 0xda37d691
2,      45056,      45056,     1024,     4096, 0x7193ecbf
2,      46080,      46080,     1024,     4096, 0x6e4a0a36
2,      47104,      47104,     1024,     4096, 0x61cfe70d
2,      48128,      48128,     1024,     4096, 0xc19ffa15
2,      49152,      49152,     1024,     4096, 0x7b32fb3d
2,      50176,      50176,     1024,     4096, 0xdacefd3f
2,      51200,      51200,     1024,     4096, 0x3964f64d
2,      52224,      52224,     1024,     4096, 0xdcf2edad
2,      53248,      53248,     1024,     4096, 0x1367f69b
2,      54272,      54272,     1024,     4096, 0xd4c6f7b9
2,      55296,      55296,     1024,     4096, 0x9e041186
2,      56320,      56320,     1024,     4096, 0xe939edd7
2,      57344,      57344,     1024,     4096, 0xa932336a
2,      58368,      58368,     1024,     4096, 0x5f510e28
2,      59392,      59392,     1024,     4096, 0x4b8501c8
2,      60416,      60416,     1024,     4096, 0xfbc30250
2,      61440,      61440,     1024,     4096, 0x5e7fd855
2,      62464,      62464,     1024,     4096, 0x8ef1f265
2,      63488,      63488,     1024,     4096, 0x9f7601c2
2,      64512,      64512,     1024,     4096, 0xb400f0b7
2,      65536,      65536,     1024,     4096, 0x4c91e10b
2,      66560,      66560,     1024,     4096, 0x3f41fe61
2,      67584,      67584,     1024,     4096, 0x74fff9b9
2,      68608,      68608,     1024,     4096, 0x18bbf5a5
2,      69632,      69632,     1024,     4096, 0x51a70180
2,      70656,      70656,     1024,     4096, 0x29f3e8c5
2,      71680,      71680,     1024,     4096, 0x562efdb9
2,      72704,      72704,     1024,     4096, 0xa2e006e0
2,      73728,      73728,     1024,     4096, 0xa1bff541
2,      74752,      74752,     1024,     4096, 0xd95b0012
2,      75776,      75776,     1024,     4096, 0xd93e0912
2,      76800,      76800,     1024,     4096, 0x6c2a1d88
2,      77824,      77824,     1024,     4096, 0xb4d8fb8b
2,      78848,      78848,     1024,     4096, 0xf14b0492
2,      79872,      79872,     1024,     4096, 0x1c7be7b7
2,      80896,      80896,     1024,     4096, 0xc181f877
2,      81920,      81920,     1024,     4096, 0xba132d14
2,      82944,      82944,     1024,     4096, 0xabae2d9a
2,      83968,      83968,     1024,     4096, 0xb07fff15
2,      84992,      84992,     1024,     4096, 0xa0c1ff2d
2,      86016,      86016,     1024,     4096, 0x19f7fd1f
2,      87040,      87040,     1024,     4096, 0xcb6d11a4
2,      88064,      88064,     1024,     4096, 0x166ac8b7
2,      89088,      89088,     1024,     4096, 0xe68dda8f
2,      90112,      90112,     1024,     4096, 0xe457b505
2,      91136,      91136,     1024,     4096, 0xda25a409
2,      92160,      92160,     1024,     4096, 0x5b5d9d3b
2,      93184,      93184,     1024,     4096, 0xa61eb13d
2,      94208,      94208,     1024,     4096, 0xac93b66f
2,      95232,      95232,     1024,     4096, 0xc7aeb33f
2,      96256,      96256,     1024,     4096, 0x52cccfb5
2,      97280,      97280,     1024,     4096, 0x4e4cf487
2,      98304,      98304,     1024,     4096, 0x19c07f35
2,      99328,      99328,     1024,     4096, 0x63ecd34f
2,     100352,     100352,     1024,     4096, 0x122aec53
2,     101376,     101376,     1024,     4096, 0x6581c0ad
2,     102400,     102400,     1024,     4096, 0x640edb15
2,     103424,     103424,     1024,     4096, 0x5d66c66f
2,     104448,     104448,     1024,     4096, 0x069e9d35
2,     105472,     105472,     1024,     4096, 0x5c9fd0e9
2,     106496,     106496,     1024,     4096, 0x72468667
2,     107520,     107520,     1024,     4096, 0x6e6dd02b
2,     108544,     108544,     1024,     4096, 0x93edce33
2,     109568,     109568,     1024,     4096, 0xcdfbd519
2,     110592,     110592,     1024,     4096, 0x8463f2bb
2,     111616,     111616,     1024,     4096, 0x5ca6f869
2,     112640,     112640,     1024,     4096, 0x099a0398
2,     113664,     113664,     1024,     4096, 0xa7fa10f0
2,     114688,     114688,     1024,     4096, 0x28caddd3
2,     115712,     115712,     1024,     4096, 0x4852ef8b
2,     116736,     116736,     1024,     4096, 0x0250ee7b
2,     117760,     117760,     1024,     4096, 0x9583da21
2,     118784,     118784,     1024,     4096, 0x7365fb33
2,     119808,     119808,     1024,     4096, 0x28c82066
2,     120832,     120832,     1024,     4096, 0x94650be4
2,     121856,     121856,     1024,     4096, 0xeb21f8eb
2,     122880,     122880,     1024,     4096, 0xcd88f455
2,     123904,     123904,     1024,     4096, 0x66a9efaf
2,     124928,     124928,     1024,     4096, 0x5500c6ed
2,     125952,     125952,     1024,     4096, 0x0ee0c62d
2,     126976,     126976,     1024,     4096, 0x34d30762
2,     128000,     128000,     1024,     4096, 0x8c0dec9f
2,     129024,     129024,     1024,     4096, 0x790011d8
2,     130048,     130048,     1024,     4096, 0xb76a1136
2,     131072,     131072,     1024,     4096, 0x7dddfea7
2,     132096,     132096,     1024,     4096, 0xdfa3ed49
2,     133120,     133120,     1024,     4096, 0xc129f54e
2,     134144,     134144,     1024,     4096, 0x9a86f077
2,     135168,     135168,     1024,     4096, 0xc9eef209
2,     136192,     136192,     1024,     4096, 0x72d4029b
2,     137216,     137216,     1024,     4096, 0x8ec20590
2,     138240,     138240,     1024,     4096, 0xd48f18ed
2,     139264,     139264,     1024,     4096, 0xd807eadc
2,     140288,     140288,     1024,     4096, 0x1e2bea09
2,     141312,     141312,     1024,     4096, 0x937af12e
2,     142336,     142336,     1024,     4096, 0xdedbf303
2,     143360,     143360,     1024,     4096, 0xdc75df88
2,     144384,     144384,     1024,     4096, 0x1845ffd6
2,     145408,     145408,     1024,     4096, 0x20e8150c
2,     146432,     146432,     1024,     4096, 0x5ea7eeef
2,     147456,     147456,     1024,     4096, 0x4c7efa21
2,     148480,     148480,     1024,     4096, 0x8b97e30e
2,     149504,     149504,     1024,     4096, 0xe5040228
2,     150528,     150528,     1024,     4096, 0x6283f78c
2,     151552,     151552,     1024,     4096, 0xe7100140
2,     152576,     152576,     1024,     4096, 0x9ea6f9b2
2,     153600,     153600,     1024,     4096, 0x5f0e1563
2,     154624,     154624,     1024,     4096, 0x510bf18e
2,     155648,     155648,     1024,     4096, 0x5f4fe425
2,     156672,     156672,     1024,     4096, 0x507af3c0
2,     157696,     157696,     1024,     4096, 0xbf14ddc6
2,     158720,     158720,     1024,     4096, 0x1871ed69
2,     159744,     159744,     1024,     4096, 0xc349ef9f
2,     160768,     160768,     1024,     4096, 0x4e2c1834
2,     161792,     161792,     1024,     4096, 0x2383fe04
2,     162816,     162816,     1024,     4096, 0x6626f415
2,     163840,     163840,     1024,     4096, 0x283be379
2,     164864,     164864,     1024,     4096, 0xc76c0ceb
2,     165888,     165888,     1024,     4096, 0xa0b8040f
2,     166912,     166912,     1024,     4096, 0x2535eb6d
2,     167936,     167936,     1024,     4096, 0xeb180bb5
2,     168960,     168960,     1024,     4096, 0xbc5cf059
2,     169984,     169984,     1024,     4096, 0x1862f1ac
2,     171008,     171008,     1024,     4096, 0x9cc2ea2b
2,     172032,     172032,     1024,     4096, 0xbb9ae754
2,     173056,     173056,     1024,     4096, 0x716debb5
2,     174080,     174080,     1024,     4096, 0xff3aff2a
2,     175104,     175104,     1024,     4096, 0x755dfa5c
2,     176128,     176128,     1024,     4096, 0x3b830605
2,     177152,     177152,     1024,     4096, 0x0030dc9e
2,     178176,     178176,     1024,     4096, 0xb017fd54
2,     179200,     179200,     1024,     4096, 0x5c7dfa2e
2,     180224,     180224,     1024,     4096, 0x7887e599
2,     181248,     181248,     1024,     4096, 0xb730e72f
2,     182272,     182272,     1024,     4096, 0x6bb3fae4
2,     183296,     183296,     1024,     4096, 0xcc08fc36
2,     184320,     184320,     1024,     4096, 0x5afd9ec2
2,     185344,     185344,     1024,     4096, 0xa1d3e83d
2,     186368,     186368,     1024,     4096, 0x7f96013c
2,     187392,     187392,     1024,     4096, 0x7a0afe31
2,     188416,     188416,     1024,     4096, 0xa37d1701
2,     189440,     189440,     1024,     4096, 0x4615ebc2
2,     190464,     190464,     1024,     4096, 0x217005c1
2,     191488,     191488,     1024,     4096, 0x1755f789
2,     192512,     192512,     1024,     4096, 0x83e6db65
2,     193536,     193536,     1024,     4096, 0x92ab1447
2,     194560,     194560,     1024,     4096, 0xedbdf383
2,     195584,     195584,     1024,     4096, 0x4316f6a9
2,     196608,     196608,     1024,     4096, 0x1a6a0b4c
2,     197632,     197632,     1024,     4096, 0xdfd809b7
2,     198656,     198656,     1024,     4096, 0x1d2cf5f1
2,     199680,     199680,     1024,     4096, 0xd366f4a1
2,     200704,     200704,     1024,     4096, 0x6a2f86e0
2,     201728,     201728,     1024,     4096, 0xf51f08a9
2,     202752,     202752,     1024,     4096, 0x05edefa8
2,     203776,     203776,     1024,     4096, 0x255df2a6
2,     204800,     204800,     1024,     4096, 0xe881d9e4
2,     205824,     205824,     1024,     4096, 0x50380523
2,     206848,     206848,     1024,     4096, 0x8b93eb26
2,     207872,     207872,     1024,     4096, 0x759cf94c
2,     208896,     208896,     1024,     4096, 0x8474f591
2,     209920,     209920,     1024,     4096, 0x0030dc9e
2,     210944,     210944,     1024,     4096, 0xb017fd54
2,     211968,     211968,     1024,     4096, 0x5c7dfa2e
2,     212992,     212992,     1024,     4096, 0x7887e599
2,     214016,     214016,     1024,     4096, 0xb730e72f
2,     215040,     215040,     1024,     4096, 0x6bb3fae4
2,     216064,     216064,     1024,     4096, 0xcc08fc36
2,     217088,     217088,     1024,     4096, 0x5afd9ec2
2,     218112,     218112,     1024,     4096, 0xa1d3e83d
2,     219136,     219136,     1024,     4096, 0x7f96013c
2,     220160,     220160,     1024,     4096, 0x7a0afe31
2,     221184,     221184,     1024,     4096, 0xa37d1701
2,     222208,     222208,     1024,     4096, 0x4615ebc2
2,     223232,     223232,     1024,     4096, 0x217005c1
2,     224256,     224256,     1024,     4096, 0x1755f789
2,     225280,     225280,     1024,     4096, 0x83e6db65
2,     226304,     226304,     1024,     4096, 0x92ab1447
2,     227328,     227328,     1024,     4096, 0xedbdf383
2,     228352,     228352,     1024,     4096, 0x4316f6a9
2,     229376,     229376,     1024,     4096, 0x1a6a0b4c
2,     230400,     230400,     1024,     4096, 0xdfd809b7
2,     231424,     231424,     1024,     4096, 0x1d2cf5f1
2,     232448,     232448,     1024,     4096, 0xd366f4a1
2,     233472,     233472,     1024,     4096, 0x6a2f86e0
2,     234496,     234496,     1024,     4096, 0xf51f08a9
2,     235520,     235520,     1024,     4096, 0x05edefa8
2,     236544,     236544,     1024,     4096, 0x255df2a6
2,     237568,     237568,     1024,     4096, 0xe881d9e4
2,     238592,     238592,     1024,     4096, 0x50380523
2,     239616,     239616,     1024,     4096, 0x8b93eb26
2,     240640,     240640,     1024,     4096, 0x759cf94c
2,     241664,     241664,     1024,     4096, 0x8474f591
2,     242688,     242688,     1024,     4096, 0x0030dc9e
2,     243712,     243712,     1024,     4096, 0xb017fd54
2,     244736,     244736,     1024,     4096, 0x5c7dfa2e
2,     245760,     245760,     1024,     4096, 0x7887e599
2,     246784,     246784,     1024,     4096, 0xb730e72f
2,     247808,     247808,     1024,     4096, 0x6bb3fae4
2,     248832,     248832,     1024,     4096, 0xcc08fc36
2,     249856,     249856,     1024,     4096, 0x5afd9ec2
2,     250880,     250880,     1024,     4096, 0xa1d3e83d
2,     251904,     251904,     1024,     4096, 0x7f96013c
2,     252928,     252928,     1024,     4096, 0x7a0afe31
2,     253952,     253952,     1024,     4096, 0xa37d1701
2,     254976,     254976,     1024,     4096, 0x4615ebc2
2,     256000,     256000,     1024,     4096, 0x217005c1
2,     257024,     257024,     1024,     4096, 0x1755f789
2,     258048,     258048,     1024,     4096, 0x83e6db65
2,     259072,     259072,     1024,     4096, 0x92ab1447
2,     260096,     260096,     1024,     4096, 0xedbdf383
2,     261120,     261120,     1024,     4096, 0x4316f6a9
2,     262144,     262144,     1024,     4096, 0x1a6a0b4c
2,     263168,     263168,     1024,     4096, 0xdfd809b7
2,     264192,     264192,      408,     1632, 0xf412313e
